<svg width="135" height="37" viewBox="0 0 135 37" fill="none" xmlns="http://www.w3.org/2000/svg">
<path fill-rule="evenodd" clip-rule="evenodd" d="M78.448 8.63842L79.7586 8.35067L81.4429 8.17059L83.5952 8.3506C84.2503 8.38651 84.7177 8.63842 84.9983 8.92625C85.1858 9.17816 85.3726 9.46642 85.4664 9.8979V11.0496L84.9052 14.4691C84.7176 14.8651 84.7176 15.1889 84.7176 15.3689L84.9052 16.125H81.9103L81.7234 15.729V15.1889C81.2553 15.5848 80.7872 15.8372 80.3198 16.0168C79.8517 16.1968 79.2904 16.3046 78.448 16.3046C77.4186 16.3046 76.7637 16.0887 76.2963 15.6571C75.8281 15.2252 75.6413 14.7573 75.8281 14.1094C76.015 13.4975 76.1087 13.0296 76.5769 12.6696C77.045 12.2376 77.8868 11.9498 78.8223 11.7697L81.2553 11.2659L82.3784 10.9777C82.5653 10.5462 82.5653 10.3302 82.3784 10.1861C82.1916 10.0061 81.9103 9.97017 81.6297 9.97017C81.1623 9.97017 80.6941 10.0061 80.3198 10.1861C80.226 10.3302 79.8517 10.5462 79.7586 10.8699L76.7637 10.5462C76.9513 10.078 77.2318 9.71826 77.5124 9.43043L78.448 8.63842ZM74.8926 11.2659L73.9563 16.125H70.8691L71.6171 11.6978C71.8046 11.3378 71.8046 11.0863 71.6171 10.9059C71.4303 10.6181 71.3365 10.5103 70.8691 10.5103C70.4947 10.5103 70.2134 10.6181 69.9328 10.9059C69.746 11.1581 69.5584 11.5897 69.4647 12.1295L68.6229 16.125H65.535L66.2834 11.8779C66.4705 11.5178 66.4705 11.2659 66.2834 11.1582C66.2834 10.9777 66.2834 10.7981 66.1899 10.6899L65.535 10.5103C65.254 10.5103 64.88 10.6181 64.5991 10.9059C64.3185 11.1581 64.1309 11.5897 63.9441 12.1657L63.1954 16.125H60.1074L61.6049 8.3506H64.5991L64.3185 9.46635C64.7862 8.99852 65.3478 8.63842 65.8156 8.45842C66.2834 8.27877 66.7511 8.17059 67.4064 8.17059C68.0614 8.17059 68.5292 8.27877 68.8098 8.53024C69.2779 8.71033 69.4647 9.07042 69.5584 9.46635C70.2134 8.99852 70.6816 8.63842 71.149 8.45842C71.6171 8.27877 72.0852 8.17059 72.7402 8.17059C73.4889 8.17059 74.1439 8.38651 74.6113 8.92625C75.0795 9.43036 75.0795 10.1862 74.8926 11.2659ZM82.0978 12.4895L80.6941 12.8496C80.0392 13.0296 79.571 13.1374 79.3843 13.3174L79.1029 13.8571C78.916 14.1094 79.1029 14.2894 79.2905 14.4691C79.3843 14.5773 79.5711 14.6491 79.8517 14.6491C80.3198 14.6491 80.6941 14.5772 80.9747 14.3972C81.2553 14.2172 81.6297 14.0372 81.7235 13.8571C81.9103 13.6056 81.9103 13.3174 82.0978 12.8855V12.4896V12.4895ZM86.4019 16.125L87.8056 8.3506H90.8005L90.5192 9.64643C90.9874 9.10626 91.5492 8.74661 92.0166 8.53024C92.4848 8.27877 93.1397 8.17059 93.7947 8.17059C94.5434 8.17059 95.1984 8.38651 95.6665 8.92625C96.1339 9.43036 96.1339 10.1862 95.9471 11.23L95.0108 16.125H91.9229L92.6716 11.8779C92.8592 11.4096 92.6716 11.0496 92.4848 10.7981C92.391 10.6181 92.2042 10.5103 91.9229 10.5103C91.4554 10.5103 91.0811 10.6181 90.8005 10.9059C90.5192 11.23 90.3323 11.6978 90.1448 12.4177L89.5837 16.125H86.4019ZM134.5 24.2651C134.403 24.406 134.281 24.5354 134.126 24.6547C133.658 25.0154 133.19 25.1951 132.441 25.1951C131.693 25.1951 131.224 25.0154 130.757 24.7266C130.289 24.4031 129.915 24.0438 129.821 23.5034L131.038 23.2158C131.225 23.5034 131.318 23.683 131.693 23.8627C131.786 24.0438 132.161 24.1157 132.628 24.1157C132.722 24.1157 133.096 24.0438 133.19 23.9345C133.377 23.8267 133.377 23.6471 133.377 23.3955C133.377 23.108 133.096 22.8551 132.441 22.6035L132.161 22.4957C131.693 22.3161 131.224 22.0631 131.038 21.8475C130.757 21.5241 130.57 21.2352 130.57 20.8758C130.57 20.3354 130.757 19.9041 131.224 19.5448C131.693 19.2559 132.161 19.0762 132.722 19.0762C133.19 19.0762 133.658 19.184 134.126 19.5075C134.26 19.5908 134.385 19.6742 134.5 19.759V24.2651ZM134.5 20.6818L133.845 20.8758C133.845 20.5883 133.657 20.4072 133.564 20.2635C133.377 20.0839 133.096 20.0479 132.722 20.0479C132.441 20.0479 132.254 20.0839 132.161 20.2276L131.973 20.6961C131.973 20.9836 132.254 21.2351 132.91 21.4882L133.377 21.6678C133.845 21.8475 134.126 22.0272 134.5 22.3161V20.6818ZM129.915 20.1557H127.107L126.827 21.5241H129.353L129.166 22.4957H126.64L126.359 24.0078H129.446L129.353 25.0873H124.956L126.078 19.184H130.101L129.915 20.1557ZM124.768 19.184L123.832 25.0873H122.803L120.931 20.7681L120.089 25.0873H119.153L120.089 19.184H121.399L123.271 23.108L123.832 19.184H124.768ZM116.253 24.0078L116.065 25.0873H112.136L113.071 19.184H114.475L113.539 24.0078H116.253ZM116.533 25.0873L117.657 19.184H119.06L117.937 25.0873H116.533ZM112.042 20.8758C112.042 21.3085 111.855 21.596 111.667 21.8834C111.387 22.2068 111.106 22.3879 110.732 22.4957L111.387 25.0873H110.17L109.515 22.6754H108.299L107.831 25.0873H106.708L107.644 19.184H109.983C110.638 19.184 111.106 19.3278 111.574 19.6167C111.855 19.9041 112.042 20.3354 112.042 20.8759L112.042 20.8758ZM110.451 20.2635C110.264 20.1557 109.983 20.0839 109.703 20.0839H108.766L108.393 21.7756H109.515C109.796 21.7756 110.17 21.7037 110.264 21.5241C110.451 21.343 110.638 21.1633 110.638 20.8758C110.638 20.6243 110.638 20.4446 110.451 20.2635ZM106.521 19.184L105.492 25.0873H104.088L105.117 19.184H106.521ZM101.842 20.3354L100.812 22.6754H102.217L101.842 20.3354ZM102.778 19.184L103.713 25.0873H102.497L102.31 23.6471H100.439L99.69 25.0873H98.7545L101.374 19.184H102.778ZM92.8591 22.4957L92.391 25.0873H91.0811L92.0166 19.184H93.3265L92.9529 21.4882H95.0108L95.2915 19.184H96.6951L95.6665 25.0873H94.3559L94.7302 22.4957H92.8591ZM90.0518 19.5075C90.5192 19.7963 90.6129 20.0839 90.8005 20.5164L89.6774 20.8758C89.5836 20.5883 89.3968 20.4072 89.2093 20.2635C89.1162 20.0839 88.7411 20.0479 88.4606 20.0479L87.8056 20.2276L87.7125 20.6961C87.7125 20.9836 87.9932 21.2351 88.6481 21.4882L89.1162 21.6678C89.5837 21.8475 90.0518 22.0272 90.1448 22.3161C90.3324 22.6035 90.5192 22.9269 90.5192 23.2877C90.5192 23.8267 90.3323 24.2953 89.8642 24.6547C89.3968 25.0154 88.9287 25.1951 88.18 25.1951C87.525 25.1951 86.87 25.0154 86.4019 24.7266C85.9345 24.4031 85.8407 24.0438 85.6532 23.5034L86.7763 23.2158C86.8701 23.5034 87.0569 23.683 87.3382 23.8627C87.525 24.0438 87.8056 24.1157 88.2737 24.1157C88.4606 24.1157 88.7411 24.0438 88.9287 23.9345C89.1163 23.8267 89.2093 23.6471 89.2093 23.3955C89.2093 23.108 88.9287 22.8551 88.18 22.6035L87.8056 22.4957C87.3382 22.3161 86.87 22.0631 86.7763 21.8475C86.5894 21.5241 86.4019 21.2352 86.4019 20.8758C86.4019 20.3354 86.5895 19.9041 86.87 19.5448C87.3382 19.2559 87.8056 19.0762 88.4606 19.0762C88.9287 19.0762 89.5837 19.184 90.0518 19.5075ZM85.6532 20.1557H82.8466L82.5652 21.5241H84.9983L84.9052 22.4957H82.3784L82.1916 24.0078H85.1858L84.9982 25.0873H80.6942L81.7235 19.184H85.8407L85.6531 20.1557H85.6532ZM80.3198 21.8475C80.3198 22.3879 80.226 22.9269 80.0391 23.3955C79.8517 23.8626 79.5711 24.2235 79.1029 24.5468C78.916 24.7266 78.6355 24.9077 78.3549 24.9435L77.4186 25.0873H74.8926L75.8281 19.184H77.6992L78.448 19.2559L79.1029 19.4356C79.5711 19.6167 79.8517 19.9041 80.0392 20.3354C80.2261 20.7681 80.3198 21.2351 80.3198 21.8475ZM77.6992 20.2635H77.045L76.2963 24.0078H77.2318C77.6992 24.0078 78.1674 23.8268 78.448 23.4674C78.8223 23.0361 78.9161 22.4957 78.9161 21.8475C78.9161 21.3084 78.8223 20.9477 78.6355 20.6243C78.448 20.4072 78.1674 20.2635 77.6992 20.2635ZM69.5584 24.7266L72.2721 19.184H73.6758L74.6113 25.0873H73.3014L73.2083 23.6471H71.149L70.4947 25.0873H65.7221L66.7511 19.184H68.0614L67.2192 24.0078H69.746L69.5584 24.7266ZM72.7402 20.3354L71.6171 22.6754H73.0208L72.7402 20.3354ZM44.761 5.39893H51.3113C52.4344 5.39893 53.1828 5.65091 53.6509 6.19094C54.1187 6.73067 54.4931 7.30676 54.3058 8.09832C54.1187 8.74661 53.8381 9.28634 53.37 9.71826C52.9022 10.0061 52.4344 10.258 51.9663 10.438C52.715 10.6181 53.1828 10.9059 53.5572 11.4096C53.8381 11.8057 54.0249 12.4177 53.8381 13.0655C53.6509 13.6057 53.5572 14.1453 53.0894 14.5772C52.715 15.0089 52.2472 15.3689 51.7791 15.6571C51.4985 15.8372 51.0308 15.9449 50.3758 16.0168L48.8783 16.125H42.7957L44.761 5.399V5.39893ZM56.9261 5.39893H60.1074L59.7331 7.45048H56.645L56.926 5.399L56.9261 5.39893ZM47.9428 7.55859L47.5684 9.61007H49.1589C49.6271 9.61007 50.0948 9.53825 50.282 9.35853C50.5626 9.17823 50.7498 8.89033 50.7498 8.5666C50.8436 8.27877 50.7498 8.02642 50.5626 7.84641C50.3758 7.66685 49.9076 7.55866 49.4399 7.55866H47.9427L47.9428 7.55859ZM46.8197 13.8571H48.504C49.1589 13.8571 49.6271 13.7493 49.9076 13.4975C50.0949 13.3174 50.282 13.0655 50.3758 12.7055C50.5626 12.4177 50.3758 12.1295 50.2819 11.9497C50.0949 11.7697 49.6271 11.6256 48.9721 11.6256H47.1007L46.8197 13.8571ZM56.4579 8.3506H59.6396L58.0488 16.125H54.9609L56.458 8.3506H56.4579ZM64.5991 19.5449C65.0668 19.8682 65.254 20.3354 65.3478 20.8758L64.3185 21.1273C64.1308 20.804 63.9441 20.5883 63.8507 20.4072C63.6631 20.2276 63.3825 20.0839 63.0086 20.0839L62.5404 20.2635L62.0727 20.7681C61.9789 20.9837 61.792 21.3084 61.792 21.6678L61.6049 22.7473C61.6049 23.1439 61.7921 23.5034 61.9789 23.7548C62.0727 24.0438 62.2598 24.1876 62.7276 24.1876C63.0086 24.1876 63.3825 24.0438 63.476 23.8267C63.6631 23.6471 63.8507 23.2877 63.8507 22.8551H62.7276L62.9148 21.9553H65.254L64.7862 25.0873H64.1309L63.9441 24.4031C63.8507 24.6547 63.6632 24.8344 63.3825 24.9436C63.0086 25.1232 62.7276 25.1951 62.447 25.1951C61.7921 25.1951 61.3239 24.9436 60.8561 24.475C60.3884 24.0078 60.2012 23.3955 60.2012 22.6035L60.5752 21.1273C60.669 20.6243 60.8561 20.2276 61.3239 19.8682L62.0727 19.3278C62.447 19.1481 62.7276 19.0762 63.1954 19.0762C63.6632 19.0762 64.1309 19.2559 64.5991 19.5448V19.5449ZM59.9202 19.184L58.7971 25.0873H57.8616L55.8967 20.7681L55.0547 25.0872H54.1187L55.2414 19.184H56.4579L58.2359 23.108L58.7971 19.184H59.9202ZM51.9663 20.3354L50.8436 22.6754H52.2472L51.9663 20.3354ZM48.6912 19.5448C48.9721 19.7963 49.1589 20.1557 49.1589 20.6243C49.1589 20.9836 48.9721 21.3084 48.8783 21.5241C48.504 21.7756 48.2234 21.9553 47.9428 22.0272C48.2234 22.135 48.4106 22.3161 48.504 22.5676C48.6912 22.7833 48.8783 23.108 48.8783 23.3955C48.8783 23.9345 48.6912 24.3672 48.4106 24.6547C47.9428 24.9436 47.4746 25.0873 46.6325 25.0873H43.8252L44.761 19.184H47.1007C47.9427 19.184 48.4106 19.3278 48.6912 19.5448ZM47.9428 20.804C47.9428 20.5883 47.7552 20.4073 47.5684 20.3354C47.4746 20.2276 47.2878 20.1557 47.0069 20.1557H45.8842L45.697 21.5959H46.8197C47.1007 21.5959 47.4746 21.5241 47.5684 21.343C47.7552 21.2351 47.9428 21.0555 47.9428 20.804ZM46.5391 22.4238H45.6033L45.2288 24.1156H46.5391C46.8197 24.1156 47.1007 24.0437 47.2878 23.8626C47.4746 23.6829 47.5684 23.5033 47.5684 23.2158C47.5684 22.9628 47.4746 22.7831 47.2878 22.6754C47.1007 22.4956 47.0069 22.4238 46.5391 22.4238ZM48.6912 25.0872L51.4985 19.184H52.9022L53.8381 25.0872H52.6213L52.4344 23.647H50.5626L49.8142 25.0872L48.6912 25.0872Z" fill="#3D7357"/>
<path fill-rule="evenodd" clip-rule="evenodd" d="M5.83378 5.47092C7.51815 3.70733 9.5767 2.4115 11.7291 1.43992C14.0684 0.467905 16.4079 0 18.9344 0C21.367 0 23.7066 0.467905 26.0462 1.43992C28.292 2.41157 30.2569 3.70733 32.0349 5.47099C33.7192 7.12684 34.936 9.10613 35.8716 11.3376C36.8071 13.6054 37.275 16.0166 37.275 18.5363C37.275 20.9834 36.8071 23.3953 35.8716 25.7339C34.936 27.9661 33.7192 29.8735 32.0349 31.6013C30.2569 33.3649 28.292 34.6614 26.0461 35.5598C23.7066 36.5328 21.367 37 18.9344 37C16.4079 37 14.0683 36.5328 11.7291 35.5598C9.5767 34.6614 7.51807 33.3649 5.83378 31.6012C4.05575 29.8735 2.83923 27.9661 1.90369 25.7339C0.967847 23.3953 0.5 20.9835 0.5 18.5363C0.5 16.0166 0.967773 13.6054 1.90369 11.3376C2.83923 9.10613 4.05575 7.12684 5.83378 5.47099V5.47092ZM23.2388 17.9239L25.1103 19.7242C25.5784 20.2273 26.4206 20.2273 27.1688 19.7242L31.38 16.9163L30.2569 15.9087H36.246L27.3561 22.244C26.2334 22.8548 25.4846 22.9267 24.8297 22.3877C24.0809 21.8473 23.7066 21.5239 23.7066 21.5958C23.145 20.8038 22.3029 20.6959 21.2735 21.2349L15.7526 25.3027H5.92759L15.2848 18.2839L1.62279 18.3561L3.49455 16.5562H20.8058C21.7417 16.4484 22.4901 16.9163 23.2388 17.9238V17.9239Z" fill="#E1241A"/>
</svg>
