<svg width="14" height="14" viewBox="0 0 14 14" fill="none" xmlns="http://www.w3.org/2000/svg">
<circle cx="7" cy="7" r="6.5" fill="#D2E1FF" stroke="#3B71FE"/>
<path d="M6.4258 9.6404V5.3312H7.5598V9.6404H6.4258ZM6.997 4.7768C6.7954 4.7768 6.6274 4.718 6.493 4.6004C6.3642 4.4772 6.2998 4.3232 6.2998 4.1384C6.2998 3.9536 6.3642 3.8024 6.493 3.6848C6.6274 3.5616 6.7954 3.5 6.997 3.5C7.2042 3.5 7.3722 3.5616 7.501 3.6848C7.6354 3.8024 7.7026 3.9536 7.7026 4.1384C7.7026 4.3232 7.6354 4.4772 7.501 4.6004C7.3722 4.718 7.2042 4.7768 6.997 4.7768Z" fill="black"/>
</svg>
