<svg width="219" height="224" viewBox="0 0 219 224" fill="none" xmlns="http://www.w3.org/2000/svg">
<path d="M134.9 178.8C137.22 178.8 139.1 176.92 139.1 174.6C139.1 172.28 137.22 170.4 134.9 170.4C132.581 170.4 130.7 172.28 130.7 174.6C130.7 176.92 132.581 178.8 134.9 178.8Z" fill="#3269E5"/>
<path d="M81.1004 186.1C83.42 186.1 85.3004 184.22 85.3004 181.9C85.3004 179.58 83.42 177.7 81.1004 177.7C78.7808 177.7 76.9004 179.58 76.9004 181.9C76.9004 184.22 78.7808 186.1 81.1004 186.1Z" fill="#98DD96"/>
<path d="M48.6004 143C50.92 143 52.8004 141.12 52.8004 138.8C52.8004 136.48 50.92 134.6 48.6004 134.6C46.2808 134.6 44.4004 136.48 44.4004 138.8C44.4004 141.12 46.2808 143 48.6004 143Z" fill="#98DD96"/>
<path d="M176.9 145.8C179.22 145.8 181.1 143.92 181.1 141.6C181.1 139.28 179.22 137.4 176.9 137.4C174.581 137.4 172.7 139.28 172.7 141.6C172.7 143.92 174.581 145.8 176.9 145.8Z" fill="#3269E5"/>
<path d="M171.3 91.8C173.619 91.8 175.5 89.9196 175.5 87.6C175.5 85.2804 173.619 83.4 171.3 83.4C168.98 83.4 167.1 85.2804 167.1 87.6C167.1 89.9196 168.98 91.8 171.3 91.8Z" fill="#A592F6"/>
<path d="M137.6 47.2C139.92 47.2 141.8 45.3196 141.8 43C141.8 40.6804 139.92 38.8 137.6 38.8C135.281 38.8 133.4 40.6804 133.4 43C133.4 45.3196 135.281 47.2 137.6 47.2Z" fill="#A592F6"/>
<path d="M83.4998 57.3C85.8194 57.3 87.6998 55.4196 87.6998 53.1C87.6998 50.7804 85.8194 48.9 83.4998 48.9C81.1802 48.9 79.2998 50.7804 79.2998 53.1C79.2998 55.4196 81.1802 57.3 83.4998 57.3Z" fill="#D8426C"/>
<path d="M41.6004 90C43.92 90 45.8004 88.1196 45.8004 85.8C45.8004 83.4804 43.92 81.6 41.6004 81.6C39.2808 81.6 37.4004 83.4804 37.4004 85.8C37.4004 88.1196 39.2808 90 41.6004 90Z" fill="#D8426C"/>
<path d="M179.7 190.6C182.958 190.6 185.6 187.958 185.6 184.7C185.6 181.442 182.958 178.8 179.7 178.8C176.441 178.8 173.8 181.442 173.8 184.7C173.8 187.958 176.441 190.6 179.7 190.6Z" fill="#3269E5"/>
<path d="M38.6002 190C41.8587 190 44.5002 187.359 44.5002 184.1C44.5002 180.842 41.8587 178.2 38.6002 178.2C35.3417 178.2 32.7002 180.842 32.7002 184.1C32.7002 187.359 35.3417 190 38.6002 190Z" fill="#98DD96"/>
<path d="M108.8 223.1C112.059 223.1 114.7 220.458 114.7 217.2C114.7 213.942 112.059 211.3 108.8 211.3C105.542 211.3 102.9 213.942 102.9 217.2C102.9 220.458 105.542 223.1 108.8 223.1Z" fill="#98DD96"/>
<path d="M212.5 119.8C215.758 119.8 218.4 117.158 218.4 113.9C218.4 110.642 215.758 108 212.5 108C209.241 108 206.6 110.642 206.6 113.9C206.6 117.158 209.241 119.8 212.5 119.8Z" fill="#3269E5"/>
<path d="M182.8 46C186.059 46 188.7 43.3585 188.7 40.1C188.7 36.8415 186.059 34.2 182.8 34.2C179.542 34.2 176.9 36.8415 176.9 40.1C176.9 43.3585 179.542 46 182.8 46Z" fill="#A592F6"/>
<path d="M38.6002 48.9C41.8587 48.9 44.5002 46.2585 44.5002 43C44.5002 39.7415 41.8587 37.1 38.6002 37.1C35.3417 37.1 32.7002 39.7415 32.7002 43C32.7002 46.2585 35.3417 48.9 38.6002 48.9Z" fill="#D8426C"/>
<path d="M5.9 119.8C9.15848 119.8 11.8 117.158 11.8 113.9C11.8 110.642 9.15848 108 5.9 108C2.64152 108 0 110.642 0 113.9C0 117.158 2.64152 119.8 5.9 119.8Z" fill="#D8426C"/>
<path d="M109.3 11.8C112.559 11.8 115.2 9.15848 115.2 5.9C115.2 2.64152 112.559 0 109.3 0C106.042 0 103.4 2.64152 103.4 5.9C103.4 9.15848 106.042 11.8 109.3 11.8Z" fill="#A592F6"/>
<path fill-rule="evenodd" clip-rule="evenodd" d="M85.125 118.208C85.125 104.746 96.0381 93.8333 109.5 93.8333C122.962 93.8333 133.875 104.746 133.875 118.208C133.875 131.67 122.962 142.583 109.5 142.583C96.0381 142.583 85.125 131.67 85.125 118.208ZM112.208 107.375C112.208 105.879 110.996 104.667 109.5 104.667C108.004 104.667 106.792 105.879 106.792 107.375V118.208C106.792 118.927 107.077 119.615 107.585 120.123L113.002 125.54C114.059 126.598 115.774 126.598 116.832 125.54C117.889 124.482 117.889 122.768 116.832 121.71L112.208 117.086V107.375Z" fill="#6155F5"/>
<path d="M89.4585 97.3543C88.2619 98.2518 86.5643 98.0093 85.6668 96.8127C84.7694 95.6161 85.0119 93.9185 86.2085 93.021L91.6252 88.9585C92.8218 88.0611 94.5194 88.3036 95.4168 89.5002C96.3143 90.6968 96.0718 92.3944 94.8752 93.2918L89.4585 97.3543Z" fill="#6155F5"/>
<path d="M127.375 88.9588C126.179 88.0614 124.481 88.3039 123.583 89.5005C122.686 90.6971 122.929 92.3947 124.125 93.2922L129.542 97.3547C130.738 98.2521 132.436 98.0096 133.333 96.813C134.231 95.6164 133.988 93.9188 132.792 93.0213L127.375 88.9588Z" fill="#6155F5"/>
</svg>
