<svg width="219" height="224" viewBox="0 0 219 224" fill="none" xmlns="http://www.w3.org/2000/svg">
<g clip-path="url(#clip0_52_7539)">
<path d="M144.7 113.9C144.7 116.9 140.4 119.3 139.6 122.1C138.8 125 141.4 129.2 139.9 131.7C138.4 134.2 133.5 134.1 131.4 136.2C129.3 138.3 129.4 143.2 126.9 144.7C124.4 146.1 120.2 143.6 117.3 144.4C114.5 145.1 112.1 149.5 109.2 149.5C106.2 149.5 103.8 145.2 101 144.4C98.0996 143.6 93.8996 146.2 91.3996 144.7C88.8996 143.2 88.9996 138.3 86.8996 136.2C84.7996 134.1 79.8996 134.2 78.3996 131.7C76.9996 129.2 79.4996 125 78.6996 122.1C77.9996 119.3 73.5996 116.9 73.5996 114C73.5996 111 77.8996 108.6 78.6996 105.8C79.4996 102.9 76.8996 98.7 78.3996 96.2C79.8996 93.7 84.7996 93.8 86.8996 91.7C88.9996 89.6 88.8996 84.7 91.3996 83.2C93.8996 81.8 98.0996 84.3 101 83.5C103.8 82.8 106.2 78.4 109.1 78.4C112.1 78.4 114.5 82.7 117.3 83.5C120.2 84.3 124.4 81.7 126.9 83.2C129.4 84.7 129.3 89.6 131.4 91.7C133.5 93.8 138.4 93.7 139.9 96.2C141.3 98.7 138.8 102.9 139.6 105.8C140.3 108.5 144.7 110.9 144.7 113.9Z" fill="#58C27D"/>
<path d="M134.9 178.8C137.22 178.8 139.1 176.92 139.1 174.6C139.1 172.28 137.22 170.4 134.9 170.4C132.581 170.4 130.7 172.28 130.7 174.6C130.7 176.92 132.581 178.8 134.9 178.8Z" fill="#3269E5"/>
<path d="M81.1004 186.1C83.42 186.1 85.3004 184.22 85.3004 181.9C85.3004 179.58 83.42 177.7 81.1004 177.7C78.7808 177.7 76.9004 179.58 76.9004 181.9C76.9004 184.22 78.7808 186.1 81.1004 186.1Z" fill="#98DD96"/>
<path d="M48.6004 143C50.92 143 52.8004 141.12 52.8004 138.8C52.8004 136.48 50.92 134.6 48.6004 134.6C46.2808 134.6 44.4004 136.48 44.4004 138.8C44.4004 141.12 46.2808 143 48.6004 143Z" fill="#98DD96"/>
<path d="M176.9 145.8C179.22 145.8 181.1 143.92 181.1 141.6C181.1 139.28 179.22 137.4 176.9 137.4C174.581 137.4 172.7 139.28 172.7 141.6C172.7 143.92 174.581 145.8 176.9 145.8Z" fill="#3269E5"/>
<path d="M171.3 91.8C173.619 91.8 175.5 89.9196 175.5 87.6C175.5 85.2804 173.619 83.4 171.3 83.4C168.98 83.4 167.1 85.2804 167.1 87.6C167.1 89.9196 168.98 91.8 171.3 91.8Z" fill="#A592F6"/>
<path d="M137.6 47.2C139.92 47.2 141.8 45.3196 141.8 43C141.8 40.6804 139.92 38.8 137.6 38.8C135.281 38.8 133.4 40.6804 133.4 43C133.4 45.3196 135.281 47.2 137.6 47.2Z" fill="#A592F6"/>
<path d="M83.4998 57.3C85.8194 57.3 87.6998 55.4196 87.6998 53.1C87.6998 50.7804 85.8194 48.9 83.4998 48.9C81.1802 48.9 79.2998 50.7804 79.2998 53.1C79.2998 55.4196 81.1802 57.3 83.4998 57.3Z" fill="#D8426C"/>
<path d="M41.6004 90C43.92 90 45.8004 88.1196 45.8004 85.8C45.8004 83.4804 43.92 81.6 41.6004 81.6C39.2808 81.6 37.4004 83.4804 37.4004 85.8C37.4004 88.1196 39.2808 90 41.6004 90Z" fill="#D8426C"/>
<path d="M179.7 190.6C182.958 190.6 185.6 187.958 185.6 184.7C185.6 181.442 182.958 178.8 179.7 178.8C176.441 178.8 173.8 181.442 173.8 184.7C173.8 187.958 176.441 190.6 179.7 190.6Z" fill="#3269E5"/>
<path d="M38.6002 190C41.8587 190 44.5002 187.359 44.5002 184.1C44.5002 180.842 41.8587 178.2 38.6002 178.2C35.3417 178.2 32.7002 180.842 32.7002 184.1C32.7002 187.359 35.3417 190 38.6002 190Z" fill="#98DD96"/>
<path d="M108.8 223.1C112.059 223.1 114.7 220.458 114.7 217.2C114.7 213.942 112.059 211.3 108.8 211.3C105.542 211.3 102.9 213.942 102.9 217.2C102.9 220.458 105.542 223.1 108.8 223.1Z" fill="#98DD96"/>
<path d="M212.5 119.8C215.758 119.8 218.4 117.158 218.4 113.9C218.4 110.642 215.758 108 212.5 108C209.241 108 206.6 110.642 206.6 113.9C206.6 117.158 209.241 119.8 212.5 119.8Z" fill="#3269E5"/>
<path d="M182.8 46C186.059 46 188.7 43.3585 188.7 40.1C188.7 36.8415 186.059 34.2 182.8 34.2C179.542 34.2 176.9 36.8415 176.9 40.1C176.9 43.3585 179.542 46 182.8 46Z" fill="#A592F6"/>
<path d="M38.6002 48.9C41.8587 48.9 44.5002 46.2585 44.5002 43C44.5002 39.7415 41.8587 37.1 38.6002 37.1C35.3417 37.1 32.7002 39.7415 32.7002 43C32.7002 46.2585 35.3417 48.9 38.6002 48.9Z" fill="#D8426C"/>
<path d="M5.9 119.8C9.15848 119.8 11.8 117.158 11.8 113.9C11.8 110.642 9.15848 108 5.9 108C2.64152 108 0 110.642 0 113.9C0 117.158 2.64152 119.8 5.9 119.8Z" fill="#D8426C"/>
<path d="M109.3 11.8C112.559 11.8 115.2 9.15848 115.2 5.9C115.2 2.64152 112.559 0 109.3 0C106.042 0 103.4 2.64152 103.4 5.9C103.4 9.15848 106.042 11.8 109.3 11.8Z" fill="#A592F6"/>
<path fill-rule="evenodd" clip-rule="evenodd" d="M122.524 103.241C122.922 103.639 123.146 104.179 123.146 104.743C123.146 105.306 122.922 105.847 122.524 106.245L106.596 122.173C106.386 122.383 106.136 122.55 105.861 122.664C105.586 122.778 105.291 122.837 104.993 122.837C104.696 122.837 104.401 122.778 104.126 122.664C103.851 122.55 103.601 122.383 103.39 122.173L95.4769 114.261C95.2739 114.065 95.112 113.83 95.0006 113.571C94.8893 113.312 94.8307 113.033 94.8282 112.751C94.8258 112.469 94.8795 112.189 94.9864 111.928C95.0932 111.666 95.251 111.429 95.4505 111.23C95.65 111.03 95.8873 110.872 96.1485 110.766C96.4096 110.659 96.6894 110.605 96.9716 110.607C97.2537 110.61 97.5326 110.668 97.7918 110.78C98.0511 110.891 98.2856 111.053 98.4816 111.256L104.993 117.767L119.518 103.241C119.715 103.043 119.949 102.886 120.207 102.78C120.465 102.673 120.742 102.618 121.021 102.618C121.3 102.618 121.576 102.673 121.834 102.78C122.092 102.886 122.327 103.043 122.524 103.241Z" fill="white"/>
</g>
<defs>
<clipPath id="clip0_52_7539">
<rect width="218.4" height="223.1" fill="white"/>
</clipPath>
</defs>
</svg>
