<svg width="129" height="129" viewBox="0 0 129 129" fill="none" xmlns="http://www.w3.org/2000/svg">
<circle cx="64.5" cy="64.5" r="64" fill="white" stroke="#EAEAEA"/>
<g clip-path="url(#clip0_52_3783)">
<path d="M64.2577 90C57.5557 90 50.837 90 44.135 90C41.701 90 39.7171 89.0775 38.2833 87.0815C37.4331 85.9074 37.0329 84.5824 37.0163 83.1399C36.9996 81.8651 36.9996 80.5904 36.9996 79.3157C36.9996 78.1416 37.5831 77.4371 38.7168 77.2023C40.4506 76.8333 41.6343 75.8101 42.1511 74.0993C42.868 71.7679 41.4676 69.2687 39.1169 68.6481C38.9002 68.581 38.6668 68.5642 38.45 68.4971C37.6498 68.2791 37.0163 67.625 37.0163 66.7863C36.9996 65.0084 36.9329 63.2137 37.133 61.4525C37.4664 58.534 40.0338 56.1355 42.9514 55.8168C43.4015 55.7665 43.8683 55.733 44.3184 55.733C57.6057 55.733 70.9097 55.733 84.197 55.733C86.3643 55.733 88.2482 56.3703 89.7319 58.0141C90.8489 59.2553 91.4491 60.7313 91.4825 62.4086C91.5158 63.7672 91.4991 65.1258 91.4991 66.5012C91.4991 67.6082 90.9323 68.3126 89.8487 68.5475C88.0981 68.9332 86.8811 69.9228 86.3476 71.6672C85.6474 73.9651 86.9811 76.4139 89.2651 77.0849C89.4985 77.152 89.7486 77.1855 89.9987 77.2526C90.9156 77.4874 91.4991 78.2086 91.4991 79.1647C91.5158 80.5065 91.5158 81.8484 91.4991 83.1902C91.4491 86.8802 88.665 89.7987 84.9972 90.0168C84.6804 90.0335 84.3804 90.0335 84.0636 90.0335C77.4616 90 70.8597 90 64.2577 90ZM89.5319 66.5179C89.5319 65.1258 89.5486 63.7672 89.5319 62.4086C89.4985 60.9326 88.8817 59.7417 87.7647 58.8024C86.8144 57.9973 85.6807 57.6786 84.4637 57.6786C71.0097 57.6786 57.539 57.6786 44.085 57.6786C43.9683 57.6786 43.835 57.6786 43.7183 57.6954C41.2842 57.8296 39.4003 59.5236 39.0835 61.9222C38.9668 62.8447 39.0335 63.8007 39.0335 64.74C39.0335 65.3438 39.0335 65.9477 39.0335 66.5347C42.7013 67.3063 44.2351 70.0235 44.3685 72.4388C44.4518 73.7638 44.1517 75.0218 43.4515 76.1624C42.4345 77.8229 40.9174 78.7789 39.0502 79.1647C39.0502 80.6743 39.0169 82.1503 39.0669 83.6095C39.1002 84.4817 39.4503 85.2868 39.9671 85.9913C41.0341 87.417 42.5012 88.004 44.2517 88.004C57.1556 87.9872 70.0428 88.004 82.9466 88.004C83.5468 88.004 84.1636 88.0208 84.7638 88.004C87.4646 87.9369 89.5152 85.8571 89.5652 83.1399C89.5819 81.9658 89.5652 80.7917 89.5652 79.6176C89.5652 79.4498 89.5319 79.2989 89.5152 79.1479C85.7641 78.3093 84.2303 75.374 84.2303 72.8413C84.197 70.3757 85.6641 67.4069 89.5319 66.5179Z" fill="#ACACAC"/>
<path d="M93 56.0516C93 56.6051 92.6665 57.0077 92.1997 57.1083C91.7162 57.209 91.2328 56.9406 91.0827 56.4206C90.916 55.8839 90.7993 55.3304 90.6659 54.7769C89.9491 51.8081 89.2322 48.8393 88.5153 45.8705C87.9151 43.3713 85.8145 41.7444 83.4138 41.9792C82.3801 42.0798 81.3798 42.3985 80.3629 42.6333C69.0262 45.4008 57.6895 48.1851 46.3527 50.9527C45.2357 51.221 44.1187 51.4726 43.0184 51.7578C41.5013 52.1435 40.3676 53.0157 39.6674 54.4414C39.5841 54.6259 39.484 54.8272 39.334 54.9614C39.0339 55.2801 38.5671 55.3472 38.1836 55.1291C37.8002 54.9111 37.5835 54.5085 37.6835 54.0724C37.7335 53.8544 37.8335 53.6363 37.9336 53.4351C38.9172 51.6068 40.4176 50.3992 42.4516 49.896C47.9032 48.5541 53.3715 47.2123 58.8231 45.8873C66.4754 44.0087 74.1443 42.1804 81.7966 40.2516C85.4477 39.3291 88.682 41.1573 89.899 43.9248C90.3325 44.8977 90.5492 45.9543 90.7993 46.9775C91.5162 49.8624 92.1997 52.7474 92.8999 55.6323C92.9499 55.8 92.9833 55.9678 93 56.0516Z" fill="#ACACAC"/>
<path d="M58.223 75.8772C56.6225 75.8772 55.1387 75.8604 53.6716 75.894C53.4215 75.894 53.1215 76.0952 52.9047 76.263C52.3212 76.7494 51.7711 77.2526 51.2209 77.7557C50.7041 78.2254 50.1372 78.3931 49.5037 78.108C48.8535 77.8228 48.6201 77.2693 48.6201 76.5816C48.6368 74.0825 48.6368 71.6001 48.6201 69.1009C48.6201 68.43 48.8535 67.9101 49.4704 67.6249C50.1039 67.323 50.6874 67.474 51.2042 67.9436C51.7544 68.4468 52.3045 68.9667 52.8881 69.4364C53.1215 69.6209 53.4215 69.8389 53.705 69.8389C55.1721 69.8725 56.6558 69.8557 58.223 69.8557C58.1063 69.5873 58.0229 69.3861 57.9396 69.1848C57.306 67.8597 56.6558 66.5514 56.0557 65.2264C55.4555 63.9181 56.0557 62.4924 57.3727 62.0731C58.323 61.7712 59.1399 62.0228 59.8068 62.7608C60.8238 63.8678 61.8574 64.9748 62.8744 66.0818C63.9247 67.2224 64.975 68.3461 66.0086 69.5035C66.2754 69.7886 66.5254 69.9228 66.9256 69.906C67.9425 69.8725 68.9595 69.8893 69.9931 69.906C71.727 69.9228 73.0107 71.1472 73.0441 72.8077C73.0774 74.4683 71.8437 75.7933 70.1265 75.8604C69.1096 75.9107 68.0926 75.894 67.0589 75.8604C66.5921 75.8436 66.2587 75.9778 65.9253 76.3468C63.9413 78.5273 61.9241 80.6742 59.9402 82.8547C59.4067 83.4418 58.7898 83.8275 57.9896 83.794C56.3724 83.7269 55.3555 82.0999 56.039 80.5904C56.6392 79.2318 57.306 77.9067 57.9396 76.5649C58.0062 76.3636 58.0896 76.1791 58.223 75.8772ZM50.6207 75.592C50.8708 75.3908 51.0375 75.2734 51.1709 75.1224C52.0711 74.1328 53.1715 73.8477 54.4885 73.8477C59.49 73.898 64.4748 73.8644 69.4763 73.8644C69.7431 73.8644 70.0265 73.8644 70.2766 73.7973C70.7934 73.6799 71.0768 73.2103 71.0268 72.7239C70.9768 72.2375 70.6267 71.9188 70.1098 71.8685C69.9098 71.8517 69.6931 71.8517 69.493 71.8517C64.3748 71.8517 59.2566 71.8517 54.1218 71.8517C53.0881 71.8517 52.2045 71.5833 51.471 70.8285C51.2376 70.5937 50.9708 70.3757 50.6374 70.0905C50.6207 71.9859 50.6207 73.7302 50.6207 75.592ZM63.5079 75.9946C63.4912 75.9443 63.4579 75.9107 63.4412 75.8604C62.5909 75.8604 61.7407 75.8772 60.8904 75.8604C60.5403 75.8436 60.3736 75.9946 60.2236 76.2965C59.4733 77.9067 58.6898 79.5001 57.9396 81.1103C57.9062 81.1774 57.8395 81.2613 57.8395 81.3451C57.8395 81.4793 57.8729 81.6135 57.8895 81.7309C58.0229 81.7141 58.173 81.7141 58.273 81.6638C58.373 81.6135 58.4564 81.4961 58.5397 81.3955C60.0569 79.7517 61.574 78.108 63.0911 76.4642C63.2411 76.3133 63.3745 76.1455 63.5079 75.9946ZM63.4912 69.8725C63.5079 69.8222 63.5246 69.7718 63.5412 69.7215C61.824 67.8597 60.1235 66.0147 58.3897 64.1697C58.2897 64.0523 58.0729 64.0523 57.9062 64.002C57.9062 64.1697 57.8229 64.371 57.8895 64.5052C58.6731 66.1824 59.4733 67.8765 60.2903 69.537C60.3569 69.6712 60.5403 69.8557 60.6904 69.8557C61.624 69.8893 62.5576 69.8725 63.4912 69.8725Z" fill="#ACACAC"/>
<path d="M79.5623 60.4461C79.5456 60.9829 79.1288 61.3854 78.5786 61.3686C78.0451 61.3519 77.6283 60.9158 77.645 60.3958C77.6617 59.8758 78.1118 59.4398 78.6286 59.4565C79.1455 59.4733 79.5789 59.9262 79.5623 60.4461Z" fill="#ACACAC"/>
<path d="M79.5793 72.5058C79.5793 73.0258 79.1626 73.4787 78.6291 73.4787C78.1122 73.4787 77.6621 73.0426 77.6621 72.5226C77.6621 72.0026 78.0956 71.5498 78.6124 71.5498C79.1125 71.533 79.5627 71.9859 79.5793 72.5058Z" fill="#ACACAC"/>
<path d="M79.5793 66.4843C79.5793 67.0211 79.1459 67.4404 78.6124 67.4236C78.0956 67.4069 77.6621 66.9708 77.6621 66.4508C77.6788 65.9308 78.1289 65.4947 78.6457 65.5115C79.1459 65.5115 79.5793 65.9644 79.5793 66.4843Z" fill="#ACACAC"/>
<path d="M79.5793 84.6159C79.5793 85.1359 79.1292 85.5887 78.6124 85.5887C78.0956 85.5887 77.6621 85.1359 77.6621 84.6159C77.6621 84.0959 78.1122 83.6431 78.6291 83.6431C79.1292 83.6431 79.5793 84.0959 79.5793 84.6159Z" fill="#ACACAC"/>
<path d="M78.6452 77.588C79.162 77.6048 79.5955 78.0745 79.5788 78.5776C79.5622 79.0976 79.112 79.5337 78.5952 79.5169C78.0784 79.5001 77.6449 79.0305 77.6616 78.5273C77.6783 78.0241 78.1451 77.5713 78.6452 77.588Z" fill="#ACACAC"/>
</g>
<circle cx="90" cy="85" r="17" fill="#FF2B2B" stroke="white" stroke-width="2"/>
<path d="M90 95C95.5228 95 100 90.5228 100 85C100 79.4772 95.5228 75 90 75C84.4772 75 80 79.4772 80 85C80 90.5228 84.4772 95 90 95Z" stroke="white" stroke-width="2" stroke-linecap="round" stroke-linejoin="round"/>
<path d="M93 82L87 88" stroke="white" stroke-width="2" stroke-linecap="round" stroke-linejoin="round"/>
<path d="M87 82L93 88" stroke="white" stroke-width="2" stroke-linecap="round" stroke-linejoin="round"/>
<defs>
<clipPath id="clip0_52_3783">
<rect width="56" height="50" fill="white" transform="translate(37 40)"/>
</clipPath>
</defs>
</svg>
