<svg width="169" height="122" viewBox="0 0 169 122" fill="none" xmlns="http://www.w3.org/2000/svg">
<path d="M69.0804 55.2782H12.3965V11.8473C12.3965 5.59689 17.4714 0.5 23.7547 0.5H57.7221C63.9785 0.5 69.0804 5.57007 69.0804 11.8473V55.2782Z" fill="#F2F3F8" stroke="#D4DAE6" stroke-miterlimit="10"/>
<path d="M157.53 68.6643H100.846V25.2334C100.846 18.983 105.921 13.8861 112.204 13.8861H146.171C152.428 13.8861 157.53 18.9562 157.53 25.2334V68.6643Z" fill="#F2F3F8" stroke="#D4DAE6" stroke-miterlimit="10"/>
<path d="M95.127 62.6016L22.7618 71.2127L17.7137 28.828C16.8813 21.8265 21.8757 15.4956 28.884 14.664L75.8744 9.08425C82.8827 8.25265 89.2197 13.2422 90.0521 20.2438L95.127 62.6016Z" fill="white" stroke="#D4DAE6" stroke-miterlimit="10"/>
<path d="M75.8487 36.6343L33.6648 42.5092C31.4898 42.8043 29.4759 41.302 29.1537 39.1023L29.1268 38.9145C28.8315 36.7417 30.3352 34.7297 32.537 34.4078L74.7478 28.5598C76.9228 28.2647 78.9367 29.767 79.2589 31.9667L79.2858 32.1544C79.5543 34.3273 78.0506 36.3393 75.8487 36.6343Z" fill="#D5DBE7" stroke="#D4DAE6" stroke-miterlimit="10"/>
<path d="M76.2246 50.8788L83.3134 11.4986C84.3338 5.89203 89.5967 2.1096 95.2356 2.9412L144.401 10.1573C150.174 11.0158 154.175 16.3541 153.316 22.1216L149.073 50.9057H76.2246V50.8788Z" fill="white" stroke="#D4DAE6" stroke-miterlimit="10"/>
<path d="M136.747 36.3124L94.5629 30.3839C92.3879 30.0888 90.8574 28.0501 91.1796 25.8772L91.2064 25.6894C91.5018 23.5165 93.5425 21.9874 95.7175 22.3094L137.901 28.2379C140.076 28.5329 141.607 30.5717 141.285 32.7446L141.258 32.9324C140.936 35.1052 138.922 36.6343 136.747 36.3124Z" fill="#D5DBE7" stroke="#D4DAE6" stroke-miterlimit="10"/>
<path d="M19.8891 121.377H145.018C150.737 121.377 155.624 117.299 156.645 111.666L168.191 47.9012C169.507 40.6582 163.921 34.0054 156.564 34.0054H93.57C91.3145 34.0054 89.1395 34.8907 87.5016 36.4734L81.2183 43.8505C79.3655 45.6478 76.3044 45.9965 73.7267 45.9965H13.6863C5.52342 45.9965 -0.679314 53.3468 0.690121 61.3945L9.44376 112.578C10.303 117.648 14.7335 121.377 19.8891 121.377Z" fill="white" stroke="#D4DAE6" stroke-miterlimit="10"/>
</svg>
