<svg width="149" height="133" viewBox="0 0 149 133" fill="none" xmlns="http://www.w3.org/2000/svg">
<path d="M22.1708 15.5503L22.768 17.6405C23.6638 20.5518 25.978 22.8659 28.8893 23.7617L30.9795 24.3589L29.0386 24.8815C25.978 25.7772 23.5892 28.166 22.768 31.152L22.2455 33.0929L21.7976 31.4506C20.9765 28.166 18.3637 25.5533 15.0792 24.7322L13.4369 24.2843L15.3031 23.7617C18.4384 22.9406 20.9018 20.4771 21.7229 17.3419L22.1708 15.5503Z" fill="#EF3333"/>
<path d="M128.546 15.5503L129.143 17.6405C130.039 20.5518 132.353 22.8659 135.265 23.7617L137.355 24.3589L135.414 24.8815C132.353 25.7772 129.964 28.166 129.143 31.152L128.621 33.0929L128.173 31.4506C127.352 28.166 124.739 25.5533 121.454 24.7322L119.812 24.2843L121.678 23.7617C124.814 22.9406 127.277 20.4771 128.098 17.3419L128.546 15.5503Z" fill="#1BAA8F"/>
<path d="M56.1363 86.4679H0L28.0681 70.269L56.1363 86.4679Z" fill="#239198"/>
<path d="M56.1363 126.181H0V132.302H56.1363V126.181Z" fill="#6CDCB8"/>
<path d="M13.1383 97.665H7.53958V121.18H13.1383V97.665Z" fill="#239198"/>
<path d="M30.8301 97.665H25.2314V121.18H30.8301V97.665Z" fill="#239198"/>
<path d="M48.5967 97.665H42.998V121.18H48.5967V97.665Z" fill="#239198"/>
<path d="M56.1363 86.4673H0V92.066H56.1363V86.4673Z" fill="#6CDCB8"/>
<path d="M15.6017 92.0664H4.92686V97.6651H15.6017V92.0664Z" fill="#BBF1E9"/>
<path d="M33.4429 92.0664H22.768V97.6651H33.4429V92.0664Z" fill="#BBF1E9"/>
<path d="M51.2094 92.0664H40.5346V97.6651H51.2094V92.0664Z" fill="#BBF1E9"/>
<path d="M15.6017 120.583H4.92686V126.181H15.6017V120.583Z" fill="#BBF1E9"/>
<path d="M33.4429 120.583H22.768V126.181H33.4429V120.583Z" fill="#BBF1E9"/>
<path d="M51.2094 120.583H40.5346V126.181H51.2094V120.583Z" fill="#BBF1E9"/>
<path d="M149 86.4679H92.8637L120.932 70.269L149 86.4679Z" fill="#DA4637"/>
<path d="M149 126.181H92.8637V132.302H149V126.181Z" fill="#FD9C73"/>
<path d="M106.002 97.665H100.403V121.18H106.002V97.665Z" fill="#DA4637"/>
<path d="M123.694 97.665H118.095V121.18H123.694V97.665Z" fill="#DA4637"/>
<path d="M141.46 97.665H135.862V121.18H141.46V97.665Z" fill="#DA4637"/>
<path d="M149 86.4673H92.8637V92.066H149V86.4673Z" fill="#FD9C73"/>
<path d="M108.54 92.0664H97.8652V97.6651H108.54V92.0664Z" fill="#F7D7B2"/>
<path d="M126.307 92.0664H115.632V97.6651H126.307V92.0664Z" fill="#F7D7B2"/>
<path d="M144.073 92.0664H133.398V97.6651H144.073V92.0664Z" fill="#F7D7B2"/>
<path d="M108.54 120.583H97.8652V126.181H108.54V120.583Z" fill="#F7D7B2"/>
<path d="M126.307 120.583H115.632V126.181H126.307V120.583Z" fill="#F7D7B2"/>
<path d="M144.073 120.583H133.398V126.181H144.073V120.583Z" fill="#F7D7B2"/>
<path d="M70.9344 44.067L53.3172 41.6782C52.1974 41.5289 51.3763 40.4838 51.5256 39.2894L56.2285 4.35356C56.3778 3.23382 57.4229 2.41268 58.6173 2.56198L76.2345 4.95076C77.3542 5.10006 78.1754 6.14515 78.0261 7.33953L73.3232 42.2754C73.0992 43.4698 72.0541 44.2163 70.9344 44.067Z" fill="#3A8D3A"/>
<path d="M70.7851 43.4695L54.6608 35.93C53.6158 35.4074 53.1679 34.213 53.6158 33.1679L68.5456 1.21804C69.0682 0.172945 70.2625 -0.274951 71.3076 0.172945L87.4319 7.71252C88.477 8.23507 88.9249 9.42946 88.477 10.4745L73.5471 42.4244C73.0992 43.4695 71.8302 43.9174 70.7851 43.4695Z" fill="#7BC578"/>
<path d="M70.7851 43.0223L56.751 32.1235C55.8552 31.377 55.7059 30.108 56.3778 29.2122L78.0261 1.44263C78.7726 0.546837 80.0416 0.397538 80.9374 1.06938L94.9715 11.9682C95.8672 12.7147 96.0165 13.9837 95.3447 14.8795L73.6964 42.649C72.9499 43.6195 71.6809 43.7688 70.7851 43.0223Z" fill="#3A8D3A"/>
<path d="M91.6869 15.1032L73.0246 39.0656C71.9048 38.1698 70.1879 38.3938 69.2921 39.5135L60.4835 32.7204C61.3793 31.6007 61.1553 29.8837 60.0356 28.988L78.6979 5.02553C79.8177 5.92132 81.5346 5.69738 82.4304 4.57764L91.239 11.4454C90.3432 12.5651 90.5672 14.2074 91.6869 15.1032Z" fill="#7BC578"/>
<path d="M75.8612 30.2573C80.3963 30.2573 84.0727 26.5809 84.0727 22.0459C84.0727 17.5109 80.3963 13.8345 75.8612 13.8345C71.3262 13.8345 67.6498 17.5109 67.6498 22.0459C67.6498 26.5809 71.3262 30.2573 75.8612 30.2573Z" fill="#FCFFFD"/>
<path d="M75.4133 27.0474L74.7415 27.9432L70.4865 24.5839L71.8302 22.867C72.5767 21.8966 73.5471 21.7473 74.3682 22.4191C74.8908 22.867 75.1894 23.4642 74.9654 24.136L77.3542 24.5839L76.5331 25.629L74.3682 25.1811L73.8457 25.9276L75.4133 27.0474ZM73.1739 25.3304L73.7711 24.5839C74.1443 24.136 74.0696 23.6881 73.6217 23.3149C73.1739 23.0163 72.726 23.0909 72.3527 23.5388L71.7555 24.2853L73.1739 25.3304Z" fill="#46A046"/>
<path d="M80.6388 20.3293L77.7275 18.0898L79.743 21.5237L79.2951 22.1209L75.488 21.0011L78.3993 23.2406L77.8021 24.0618L73.5471 20.7025L74.3682 19.6574L78.3993 20.8518L76.1598 17.194L76.981 16.1489L81.236 19.5081L80.6388 20.3293Z" fill="#46A046"/>
<path d="M78.0832 64.2222H81.3678L85.1002 60.4151L81.3678 56.6826H78.0832L80.7706 59.2953H65.1689V61.5348H80.7706L78.0832 64.2222Z" fill="#8784EF"/>
<path d="M70.8422 66.312H67.6323L63.8252 70.1191L67.6323 73.9262H70.8422L68.2295 71.2389H83.8312V68.9994H68.2295L70.8422 66.312Z" fill="#8784EF"/>
</svg>
