<svg width="39" height="10" viewBox="0 0 39 10" fill="none" xmlns="http://www.w3.org/2000/svg">
<path d="M5.10128 4.67391C5.58384 4.82557 5.98367 5.07374 6.32835 5.41842C6.65924 5.7631 6.82469 6.24566 6.82469 6.8523C6.82469 7.65196 6.53516 8.31375 5.95609 8.81009C5.37703 9.30643 4.49464 9.5546 3.32273 9.5546C2.7023 9.5546 2.15081 9.47188 1.66826 9.30643C1.17192 9.14098 0.772086 8.94796 0.468767 8.74115C0.15166 8.54813 0 8.43783 0 8.41026L0.813448 6.64549C1.14434 6.90745 1.50281 7.10047 1.87507 7.23834C2.24732 7.36243 2.57822 7.45894 2.86775 7.5003C3.15728 7.54166 3.30894 7.55545 3.30894 7.54166C4.16375 7.56923 4.60494 7.41757 4.60494 7.07289C4.60494 6.9626 4.56358 6.87987 4.46707 6.82472C4.37056 6.76957 4.23269 6.71443 4.05345 6.67306C3.87422 6.6317 3.58469 6.57655 3.18486 6.5214C2.15081 6.35596 1.39251 6.06642 0.909959 5.65281C0.427405 5.2254 0.179234 4.67391 0.179234 3.99834C0.179234 3.52957 0.30332 3.10217 0.55149 2.72991C0.799661 2.34387 1.17192 2.05433 1.66826 1.81995C2.1646 1.59935 2.78502 1.48906 3.51575 1.48906C3.51575 1.47527 3.70877 1.48906 4.09481 1.53042C4.48086 1.57178 4.89447 1.6545 5.32188 1.79238C5.74928 1.93025 6.12154 2.13706 6.43865 2.4128L5.57005 4.06727C5.57005 4.05349 5.47354 3.99834 5.2943 3.90183C5.10128 3.80532 4.83933 3.72259 4.50843 3.63987C4.17754 3.55714 3.77771 3.51578 3.32273 3.51578C2.7023 3.51578 2.39898 3.63987 2.39898 3.88804C2.39898 4.01212 2.46792 4.12242 2.60579 4.17757C2.74366 4.24651 3.01941 4.30166 3.40545 4.35681C4.05345 4.41195 4.61873 4.52225 5.10128 4.67391Z" fill="#E83131"/>
<path d="M24.5137 1.64062V9.37527H22.3078V6.52131H19.7295V9.37527H17.5236V1.64062H19.7295V4.49459H22.3078V1.64062H24.5137Z" fill="#E83131"/>
<path d="M31.6693 1.99924C32.3173 2.35771 32.8274 2.85405 33.2135 3.47448C33.5995 4.09491 33.7788 4.77048 33.7788 5.50121C33.7788 6.23193 33.5857 6.90751 33.2135 7.52793C32.8412 8.14836 32.3173 8.6447 31.6693 9.00317C31.0213 9.36164 30.3182 9.55466 29.5461 9.55466C28.774 9.55466 28.0708 9.37542 27.4228 9.00317C26.7748 8.6447 26.2647 8.14836 25.8787 7.52793C25.4926 6.90751 25.3134 6.23193 25.3134 5.50121C25.3134 4.77048 25.5064 4.09491 25.8787 3.47448C26.2647 2.85405 26.7748 2.35771 27.4228 1.99924C28.0708 1.64078 28.774 1.44775 29.5461 1.44775C30.3182 1.44775 31.0213 1.64078 31.6693 1.99924ZM30.5663 7.26597C30.8834 7.08674 31.1178 6.83857 31.2971 6.53525C31.4763 6.21814 31.5728 5.88725 31.5728 5.51499C31.5728 5.14274 31.4763 4.81184 31.2971 4.49474C31.1178 4.17763 30.8696 3.94325 30.5663 3.76401C30.2492 3.58478 29.9183 3.48827 29.5461 3.48827C29.1738 3.48827 28.8429 3.58478 28.5258 3.76401C28.2087 3.94325 27.9743 4.19142 27.7951 4.49474C27.6159 4.81184 27.5193 5.14274 27.5193 5.51499C27.5193 5.88725 27.6159 6.21814 27.7951 6.53525C27.9743 6.85236 28.2225 7.08674 28.5258 7.26597C28.8429 7.44521 29.1738 7.54172 29.5461 7.54172C29.9183 7.54172 30.263 7.44521 30.5663 7.26597Z" fill="#E83131"/>
<path d="M38.949 1.64062V6.4248C38.949 7.45884 38.6595 8.23093 38.0804 8.76863C37.5013 9.29255 36.7017 9.56829 35.6814 9.56829C35.3229 9.56829 34.9783 9.49936 34.6198 9.36149C34.2613 9.22361 33.9856 9.04438 33.7926 8.83757L34.7439 7.10038C34.8404 7.23825 34.9645 7.34855 35.1299 7.43127C35.2816 7.51399 35.447 7.55536 35.64 7.55536C35.9572 7.55536 36.2329 7.45885 36.4397 7.27961C36.6465 7.08659 36.7568 6.81084 36.7568 6.45238V1.64062H38.949Z" fill="#E83131"/>
<path d="M13.3461 0H11.9122L8.92039 2.99183C8.38269 3.52954 8.01043 4.16375 7.80363 4.88069C7.59682 5.59762 7.58303 6.31456 7.76226 7.01771C7.92771 7.72086 8.27239 8.34129 8.79631 8.85142C9.30644 9.36154 9.92686 9.70622 10.63 9.88546C11.3332 10.0509 12.0501 10.0371 12.767 9.8441C13.484 9.63729 14.1182 9.26503 14.6559 8.72733C15.1936 8.18963 15.5658 7.55541 15.7727 6.83848C15.9657 6.12154 15.9933 5.4046 15.814 4.70145C15.6486 3.9983 15.3039 3.37788 14.78 2.86775C14.5042 2.592 14.1871 2.35762 13.8562 2.17839L12.1742 3.87422C12.2155 3.88801 12.2707 3.888 12.3121 3.90179C12.6567 3.9983 12.9601 4.17754 13.222 4.42571C13.484 4.68767 13.6632 4.99099 13.7459 5.33567C13.8424 5.68035 13.8424 6.02503 13.7459 6.3835C13.6494 6.72818 13.484 7.0315 13.222 7.29346C12.9601 7.55541 12.6567 7.73465 12.3121 7.81737C11.9674 7.91388 11.6227 7.91388 11.2642 7.81737C10.9195 7.72086 10.6162 7.54163 10.3543 7.29346C10.0923 7.0315 9.91308 6.72818 9.83035 6.3835C9.73384 6.03882 9.73384 5.69414 9.83035 5.33567C9.92686 4.99099 10.0923 4.68767 10.3543 4.42571C10.3818 4.39813 10.3956 4.38435 10.4232 4.35677L12.9463 1.8337L13.3461 1.43387V0Z" fill="#E83131"/>
</svg>
