<svg width="25" height="23" viewBox="0 0 25 23" fill="none" xmlns="http://www.w3.org/2000/svg">
<g clip-path="url(#clip0_52_6301)">
<path d="M17.9685 0.000348813H5.50423C4.12469 0.00219578 2.80215 0.552143 1.82669 1.52959C0.851222 2.50704 0.302448 3.8322 0.300697 5.21446V17.7022C0.302356 19.0845 0.851095 20.4098 1.82657 21.3873C2.80204 22.3648 4.12461 22.9148 5.50423 22.9167H17.9685C19.3481 22.9149 20.6707 22.3649 21.6461 21.3874C22.6216 20.4098 23.1702 19.0845 23.1717 17.7022V5.21446C23.1702 3.83212 22.6216 2.50684 21.6461 1.52929C20.6707 0.551734 19.3481 0.00210401 17.9685 0.000348813Z" fill="white"/>
<path d="M18.0076 0.88916H5.46635C4.33235 0.890822 3.24529 1.34287 2.44338 2.14623C1.64147 2.94958 1.19014 4.03872 1.1883 5.17492V17.7391C1.19014 18.8753 1.64147 19.9644 2.44338 20.7678C3.24529 21.5711 4.33235 22.0231 5.46635 22.0248H18.0076C19.1416 22.0235 20.2288 21.5716 21.0307 20.7681C21.8326 19.9647 22.2837 18.8753 22.2849 17.7391V5.17492C22.2831 4.03883 21.8318 2.94981 21.0301 2.14647C20.2283 1.34313 19.1414 0.891005 18.0076 0.88916Z" fill="#005ABE"/>
<path d="M9.39485 9.52087H8.33177C8.15996 9.52519 7.99239 9.57511 7.84612 9.66555C7.69985 9.756 7.58019 9.88372 7.49931 10.0357L7.60589 9.47168H6.307L5.72985 12.7139H7.03046L7.38958 10.6614H8.78877C8.78877 10.6614 8.61008 11.6777 8.53031 12.1328C8.45054 12.5879 8.7595 12.6986 8.91346 12.6986H9.59373L10.0365 10.1774C10.0332 10.0067 9.96515 9.84377 9.84612 9.7217C9.72708 9.59963 9.56608 9.52771 9.39589 9.52053" fill="white"/>
<path d="M5.36931 9.47021L5.12546 10.8617L6.11365 9.47021H5.36931Z" fill="white"/>
<path d="M6.91142 4.39258H2.56091L2.37176 5.4668H3.89042L3.28158 8.92855H4.59162L5.20327 5.4668H6.72192L6.91142 4.39258Z" fill="white"/>
<path d="M5.975 8.92876C5.893 8.93132 5.8115 8.91497 5.73677 8.88105C5.66208 8.84714 5.59611 8.79649 5.544 8.73301C5.49185 8.66957 5.45492 8.59498 5.43604 8.515C5.41715 8.43502 5.41685 8.35175 5.43508 8.27162L5.76946 6.37584C5.80565 6.19572 5.90127 6.03305 6.04085 5.91392C6.18046 5.79479 6.356 5.72615 6.53927 5.71905H8.672C8.75396 5.7163 8.83546 5.73249 8.91015 5.76637C8.98488 5.80025 9.05077 5.8509 9.10281 5.91441C9.15485 5.97793 9.19161 6.05256 9.21023 6.13258C9.22881 6.2126 9.22881 6.29586 9.21015 6.37584L8.87788 8.27162C8.84135 8.4519 8.74542 8.61469 8.6055 8.73385C8.46561 8.85302 8.28981 8.92165 8.10635 8.92876H5.975ZM7.81165 7.86607L8.00254 6.78418H6.83673L6.64723 7.86607H7.81165Z" fill="white"/>
<path d="M14.5578 7.86664L14.749 6.78475H16.4373L16.6247 5.72168H14.4526C14.2691 5.72855 14.0933 5.79704 13.9533 5.91609C13.8133 6.03514 13.7173 6.19785 13.6807 6.37813L13.3471 8.27391C13.3288 8.35412 13.3291 8.43746 13.348 8.51751C13.367 8.59757 13.404 8.6722 13.4563 8.73564C13.5085 8.79912 13.5746 8.84969 13.6495 8.88353C13.7243 8.91733 13.8059 8.93349 13.888 8.93074H15.9998L16.1862 7.86836L14.5578 7.86664Z" fill="white"/>
<path d="M11.9017 7.86619H10.4737L10.8509 5.71982H9.71219L9.26427 8.27174C9.24588 8.3518 9.24611 8.43502 9.26488 8.515C9.28365 8.59498 9.32054 8.66958 9.37261 8.73306C9.42469 8.7965 9.49065 8.84714 9.56534 8.88102C9.64004 8.9149 9.7215 8.93117 9.80346 8.92857H10.9139C11.0891 8.9175 11.2597 8.86754 11.4132 8.78229C11.5668 8.69708 11.6995 8.57871 11.8018 8.43575C11.8018 8.43575 11.9289 8.80746 12.1114 8.88946C12.3535 8.9461 12.6024 8.96784 12.8506 8.95405L13.4208 5.71875H12.2814L11.9017 7.86619Z" fill="white"/>
<path d="M20.1122 5.73547H19.0498C18.8913 5.74146 18.7379 5.79329 18.6081 5.88469C18.4783 5.97609 18.3777 6.10316 18.3183 6.25063L18.6242 4.50732H17.4267L16.6485 8.92856H17.8474L18.2079 6.87675H19.5068C19.5068 6.87675 19.3285 7.89234 19.2487 8.34816C19.169 8.80397 19.4776 8.91355 19.628 8.91355H20.2083L20.6517 6.3923C20.6701 6.3122 20.6698 6.2289 20.651 6.14892C20.6321 6.0689 20.5952 5.99431 20.543 5.93087C20.4908 5.86739 20.4249 5.81678 20.3501 5.7829C20.2754 5.74903 20.1942 5.73283 20.1122 5.73547Z" fill="white"/>
<path d="M18.3698 12.5998L18.7119 10.6653H16.7885L16.4468 12.5998H18.3698ZM15.8421 13.791C15.7318 13.7942 15.6223 13.7721 15.5218 13.7263C15.4214 13.6806 15.3327 13.6125 15.2626 13.5271C15.1925 13.4418 15.1428 13.3415 15.1173 13.2339C15.0918 13.1264 15.0912 13.0144 15.1155 12.9066L15.5648 10.3588C15.6136 10.1159 15.7426 9.89654 15.931 9.73609C16.1195 9.57563 16.3564 9.48347 16.6035 9.47446H19.3166C19.4269 9.47109 19.5365 9.49313 19.637 9.53881C19.7375 9.58449 19.8262 9.65267 19.8963 9.73803C19.9665 9.82344 20.0161 9.92381 20.0415 10.0314C20.0669 10.139 20.0673 10.251 20.0428 10.3588L19.5938 12.9066C19.5446 13.1491 19.4157 13.368 19.2276 13.5283C19.0395 13.6886 18.8033 13.7811 18.5565 13.791H15.8421Z" fill="white"/>
<path d="M13.2129 12.5997H11.2881L11.6291 10.6648H14.749L14.9545 9.47363H11.4441C11.1973 9.48291 10.9607 9.57523 10.7726 9.73565C10.5845 9.8961 10.4557 10.1153 10.4072 10.358L9.95785 12.9057C9.93331 13.0135 9.93373 13.1254 9.95912 13.2329C9.98446 13.3405 10.0341 13.4407 10.1041 13.5261C10.1742 13.6115 10.2628 13.6796 10.3632 13.7253C10.4636 13.771 10.5732 13.793 10.6834 13.7897H13.3996C13.6464 13.7802 13.8828 13.6879 14.071 13.5276C14.2592 13.3673 14.3882 13.1482 14.4372 12.9057L14.712 11.3418H13.4344L13.2129 12.5997Z" fill="white"/>
<path d="M10.9818 15.3574L9.28615 18.8583H8.21054L8.08308 16.7395L7.05623 18.8583H5.97469L5.76815 15.3574H6.53446L6.66819 18.1034L7.98692 15.3574H8.76473L8.89846 18.1034L10.2172 15.3574H10.9818Z" fill="#FFDC00"/>
<path d="M14.1835 18.8586H13.4357L14.1769 15.3574H14.9244L14.1835 18.8586Z" fill="#FFDC00"/>
<path d="M15.4103 18.8586H14.6635L15.4048 15.3574H16.1522L15.4103 18.8586Z" fill="#FFDC00"/>
<path d="M20.5762 18.8591H19.9747C19.7767 18.8722 19.578 18.8441 19.3913 18.7767C19.3343 18.7438 19.2883 18.6947 19.2591 18.6356C19.2299 18.5766 19.2188 18.5102 19.2272 18.4448C19.2294 18.334 19.2437 18.2238 19.2697 18.1161L19.8532 15.3589H20.6006L20.4122 16.2296H21.1353L20.996 16.8628H20.2847L20.0722 17.8613C20.057 17.9274 20.0469 17.9946 20.0419 18.0623C20.0381 18.0891 20.0428 18.1165 20.0553 18.1405C20.0678 18.1645 20.0875 18.1841 20.1116 18.1963C20.2033 18.2224 20.2989 18.2327 20.3941 18.2267H20.71L20.5762 18.8591Z" fill="#FFDC00"/>
<path d="M4.64492 17.227H3.31436C3.32628 17.1602 3.34568 17.095 3.37218 17.0326C3.38976 16.9875 3.41954 16.9482 3.45819 16.9192C3.49683 16.8902 3.54281 16.8725 3.59092 16.8682C3.65847 16.8593 3.72656 16.8552 3.79469 16.856H4.39031C4.58469 16.856 4.68185 16.9168 4.68185 17.0385C4.68185 17.0506 4.67027 17.1136 4.64704 17.2273L4.64492 17.227ZM5.30327 16.3077C5.11708 16.2379 4.91815 16.2089 4.71981 16.2225H3.64944C3.4031 16.2065 3.15788 16.2675 2.94758 16.397C2.77087 16.5411 2.65483 16.7466 2.6226 16.9726L2.38574 18.1114C2.36949 18.1812 2.35788 18.2431 2.35091 18.2971C2.34315 18.3464 2.33908 18.3962 2.33872 18.4461C2.33566 18.5138 2.34756 18.5814 2.37355 18.644C2.4002 18.6972 2.44268 18.7407 2.49511 18.7686C2.56706 18.8056 2.64548 18.8284 2.72605 18.8356C2.84713 18.8491 2.96891 18.8553 3.09074 18.8541H4.90758L5.04131 18.2259H3.50872C3.41321 18.2319 3.31742 18.22 3.22623 18.191C3.2022 18.1778 3.18269 18.1576 3.17027 18.1332C3.15784 18.1087 3.15306 18.0811 3.15657 18.0538C3.15864 17.9883 3.16681 17.9231 3.18095 17.8591V17.8573H3.49688V17.8591H5.23465L5.42308 16.9701C5.44892 16.8602 5.46319 16.7479 5.46558 16.635C5.47315 16.5702 5.46165 16.5046 5.4325 16.4461C5.40335 16.3877 5.35785 16.3392 5.30154 16.3063" fill="#FFDC00"/>
<path d="M11.1882 18.2252C11.0788 18.2252 11.0241 18.1787 11.0241 18.0856C11.0245 18.0566 11.0305 18.0279 11.042 18.0013C11.0535 17.9746 11.0702 17.9505 11.091 17.9303C11.1138 17.907 11.1413 17.8887 11.1717 17.8766C11.202 17.8646 11.2346 17.8591 11.2672 17.8605H12.0753V17.8587H12.3888L12.3104 18.2263L11.1882 18.2252ZM13.3303 16.4352C13.3023 16.3808 13.2574 16.3369 13.2025 16.3102C13.1298 16.2758 13.0518 16.2542 12.9719 16.2463C12.8538 16.233 12.7351 16.2269 12.6163 16.2282H10.805L10.6712 16.8613H12.2038C12.2991 16.8553 12.3946 16.8657 12.4863 16.892C12.5104 16.9042 12.53 16.9237 12.5425 16.9477C12.555 16.9716 12.5597 16.9989 12.556 17.0257C12.551 17.0931 12.5409 17.1601 12.5257 17.226H11.9269H11.3407C11.1955 17.224 11.0502 17.2331 10.9063 17.2532C10.8034 17.2667 10.7047 17.3031 10.6176 17.3597C10.5371 17.4165 10.4739 17.4945 10.4351 17.5851C10.382 17.7088 10.3413 17.8374 10.3135 17.969L10.2832 18.1153C10.2571 18.223 10.2428 18.3332 10.2407 18.444C10.2378 18.5151 10.2513 18.5859 10.2801 18.651C10.308 18.7054 10.3529 18.7493 10.4079 18.776C10.4807 18.8104 10.5588 18.832 10.6388 18.8398C10.7569 18.8532 10.8757 18.8592 10.9945 18.858H12.927L13.3282 16.9705C13.3542 16.8628 13.3684 16.7526 13.3707 16.6418C13.3734 16.5706 13.3598 16.4999 13.331 16.4348" fill="#FFDC00"/>
<path d="M18.2969 17.227H16.9663C16.978 17.1602 16.9973 17.095 17.0237 17.0326C17.0413 16.9875 17.071 16.9483 17.1096 16.9193C17.1482 16.8902 17.1941 16.8725 17.2422 16.8682C17.3097 16.8593 17.3778 16.8552 17.4459 16.856H18.0415C18.2359 16.856 18.3332 16.9168 18.3334 17.0385C18.3334 17.0506 18.3212 17.1132 18.2969 17.227ZM18.9534 16.3077C18.7672 16.2379 18.5683 16.2089 18.37 16.2225H17.3003C17.054 16.2065 16.8087 16.2675 16.5985 16.397C16.4217 16.5411 16.3057 16.7466 16.2735 16.9726L16.0363 18.1114C16.02 18.1812 16.0084 18.2431 16.0014 18.2971C15.9937 18.3464 15.9896 18.3962 15.9892 18.4461C15.9862 18.5138 15.9981 18.5814 16.0241 18.644C16.0507 18.6971 16.0932 18.7407 16.1456 18.7686C16.2176 18.8056 16.296 18.8284 16.3766 18.8356C16.4977 18.8491 16.6194 18.8553 16.7413 18.8541H18.5581L18.6919 18.2259H17.1592C17.0637 18.2319 16.968 18.22 16.8768 18.191C16.8527 18.1778 16.8332 18.1577 16.8207 18.1332C16.8083 18.1087 16.8035 18.0811 16.8071 18.0538C16.8092 17.9883 16.8173 17.9231 16.8315 17.8591V17.8573H17.1474V17.8591H18.8855L19.074 16.9701C19.0999 16.8602 19.1141 16.7479 19.1165 16.6351C19.124 16.5702 19.1125 16.5045 19.0834 16.4461C19.0542 16.3877 19.0087 16.3392 18.9524 16.3063" fill="#FFDC00"/>
<path d="M23.8688 0.960425H23.5578V1.87894H23.4818V0.960425H23.1712V0.890625H23.8678L23.8688 0.960425Z" fill="#005ABE"/>
<path d="M24.9161 1.87824H24.8412V0.99945L24.4758 1.60741H24.4633L24.0979 0.99945V1.87824H24.023V0.88916H24.116L24.4685 1.47444L24.821 0.88916H24.9157L24.9161 1.87824Z" fill="#005ABE"/>
</g>
<defs>
<clipPath id="clip0_52_6301">
<rect width="25" height="22.9167" fill="white"/>
</clipPath>
</defs>
</svg>
