<svg width="44" height="10" viewBox="0 0 44 10" fill="none" xmlns="http://www.w3.org/2000/svg">
<path fill-rule="evenodd" clip-rule="evenodd" d="M7.05741 9.86852H4.61441L2.78246 2.67397C2.69551 2.34303 2.51089 2.05045 2.23931 1.91255C1.56156 1.56602 0.814728 1.29022 0 1.15113V0.87414H3.93547C4.47862 0.87414 4.88599 1.29022 4.95388 1.77346L5.9044 6.96312L8.3462 0.87414H10.7213L7.05741 9.86852ZM12.0791 9.86852H9.77193L11.6718 0.87414H13.979L12.0791 9.86852ZM16.964 3.36566C17.0318 2.88122 17.4392 2.60423 17.9145 2.60423C18.6613 2.53469 19.4748 2.67378 20.1538 3.01912L20.5611 1.08259C19.8822 0.805598 19.1354 0.666504 18.4576 0.666504C16.2183 0.666504 14.5889 1.91236 14.5889 3.64145C14.5889 4.95685 15.7431 5.64753 16.5578 6.06361C17.4392 6.4785 17.7787 6.75549 17.7108 7.17037C17.7108 7.7927 17.0318 8.06969 16.3541 8.06969C15.5394 8.06969 14.7246 7.86225 13.979 7.51571L13.5716 9.45344C14.3864 9.79878 15.2678 9.93787 16.0825 9.93787C18.5934 10.0062 20.1538 8.76157 20.1538 6.89338C20.1538 4.54077 16.964 4.40287 16.964 3.36566ZM28.2285 9.86852L26.3966 0.87414H24.4288C24.0215 0.87414 23.6141 1.15113 23.4783 1.56602L20.086 9.86852H22.4611L22.9352 8.55432H25.8534L26.125 9.86852H28.2285ZM24.7682 3.29625L25.446 6.68608H23.5461L24.7682 3.29625Z" fill="#172B85"/>
<path d="M38.5201 0C41.3147 0.000114328 43.5797 2.23866 43.5797 5C43.5797 7.76132 41.3147 9.99989 38.5201 10C37.2673 10 36.1216 9.54888 35.2379 8.80371C34.3542 9.54898 33.2085 9.99991 31.9557 10C29.161 10 26.8952 7.76139 26.8951 5C26.8951 2.23859 29.161 0 31.9557 0C33.2083 8.7084e-05 34.3543 0.45027 35.2379 1.19531C36.1216 0.450368 37.2675 0 38.5201 0Z" fill="#ED0006"/>
<path d="M38.5198 0C41.3145 0 43.5804 2.23859 43.5804 5C43.5804 7.76139 41.3145 10 38.5198 10C37.267 9.99998 36.1213 9.54895 35.2376 8.80371C36.3251 7.88664 37.0159 6.52341 37.0159 5C37.0159 3.47637 36.3254 2.1124 35.2376 1.19531C36.1213 0.450299 37.2672 1.49523e-05 38.5198 0Z" fill="#F9A000"/>
<path d="M35.2371 1.19629C36.3247 2.11337 37.0154 3.47645 37.0154 5C37.0154 6.52333 36.3245 7.88566 35.2371 8.80273C34.1501 7.88567 33.4598 6.52302 33.4597 5C33.4597 3.47676 34.1498 2.11337 35.2371 1.19629Z" fill="#FF5E00"/>
</svg>
